<svg width="262" height="48" viewBox="0 0 262 48" fill="none" xmlns="http://www.w3.org/2000/svg">
<path d="M12.112 31.392C15.824 31.392 17.68 29.808 17.68 26.64C17.68 25.296 16.976 24.16 15.568 23.232C14.544 22.528 13.136 21.776 11.344 20.976C9.584 20.144 8.256 19.488 7.36 19.008C6.496 18.528 5.488 17.856 4.336 16.992C2.128 15.296 1.024 13.184 1.024 10.656C1.024 8.128 2 6.032 3.952 4.368C5.936 2.672 8.608 1.824 11.968 1.824C15.328 1.824 18.912 2.896 22.72 5.04C22.72 7.344 22.48 9.84 22 12.528C20.976 12.848 19.456 13.008 17.44 13.008L16.048 7.296C14.864 6.944 13.568 6.768 12.16 6.768C10.752 6.768 9.664 7.072 8.896 7.68C8.128 8.288 7.744 9.2 7.744 10.416C7.744 11.6 8.336 12.672 9.52 13.632C10.736 14.56 12.192 15.424 13.888 16.224C15.584 16.992 16.752 17.536 17.392 17.856C18.032 18.176 18.848 18.656 19.84 19.296C20.832 19.936 21.584 20.544 22.096 21.12C23.408 22.656 24.064 24.368 24.064 26.256C24.064 29.584 22.96 32.144 20.752 33.936C18.544 35.728 15.664 36.624 12.112 36.624C10.224 36.624 8.144 36.304 5.872 35.664C3.632 34.992 1.728 34.144 0.16 33.12C0.224 31.168 0.48 28.528 0.928 25.2C2.208 24.944 3.744 24.816 5.536 24.816L6.544 30.576C8.304 31.12 10.16 31.392 12.112 31.392ZM32.8116 36.576L31.7556 36.528C31.5636 36.176 31.3076 35.52 30.9876 34.56C30.6676 33.6 30.4916 32.88 30.4596 32.4C30.2996 29.232 30.1236 23.744 29.9316 15.936H26.5716L26.7156 13.2C27.4516 12.688 28.3316 12.224 29.3556 11.808L33.2436 5.664C34.4916 5.792 35.4676 6.128 36.1716 6.672L36.1236 11.232C38.1396 11.296 40.0116 11.488 41.7396 11.808C41.7396 13.088 41.3396 14.464 40.5396 15.936H36.0756C35.9476 22.656 35.8676 27.696 35.8356 31.056C37.1156 31.184 38.8596 31.552 41.0676 32.16L41.0196 34.656C40.4756 35.008 39.2596 35.424 37.3716 35.904C35.5156 36.352 33.9956 36.576 32.8116 36.576ZM50.3151 47.616C49.3871 47.616 48.3631 47.456 47.2431 47.136C46.1231 46.816 44.9231 46.336 43.6431 45.696C43.8351 42.016 44.0111 39.824 44.1711 39.12C45.3871 38.8 46.3791 38.64 47.1471 38.64C47.9471 38.64 48.4591 38.656 48.6831 38.688L50.2191 43.488L50.6511 43.44C51.3871 43.344 52.1391 42.464 52.9071 40.8C53.6751 39.136 54.2351 37.536 54.5871 36H52.5711L45.4671 16.224L41.7231 15.792C41.7231 14.48 42.0911 13.088 42.8271 11.616H54.7791L55.2111 14.256C53.8991 14.864 52.7951 15.28 51.8991 15.504L55.5471 26.88L55.9791 28.944H57.0351L61.1151 15.504C60.0271 15.312 58.6831 14.896 57.0831 14.256L57.5151 11.616H69.4671C70.2031 13.088 70.5711 14.48 70.5711 15.792C69.3231 15.984 68.0751 16.112 66.8271 16.176C63.9471 24.624 61.6911 31.152 60.0591 35.76C58.4591 40.368 57.0031 43.488 55.6911 45.12C54.3791 46.784 52.5871 47.616 50.3151 47.616ZM81.4596 0.335999C82.0676 0.335999 82.4516 0.351998 82.6116 0.383998C82.6116 2.048 82.4036 3.504 81.9876 4.752C81.9556 6.736 81.9076 9.536 81.8436 13.152C81.7156 21.088 81.6196 27.168 81.5556 31.392L85.2996 31.824C85.2996 33.136 84.9316 34.528 84.1956 36H72.2436L71.8116 33.36C73.7956 32.624 75.2356 32.144 76.1316 31.92L75.2196 5.28C73.7156 5.12 72.4516 4.88 71.4276 4.56C71.4276 3.376 71.5396 2.224 71.7636 1.104C73.6516 0.591998 76.8836 0.335999 81.4596 0.335999ZM98.9279 31.872C100.016 31.872 102.224 31.12 105.552 29.616C106.256 30.64 106.784 31.824 107.136 33.168C105.376 34.256 103.648 35.104 101.952 35.712C100.288 36.288 99.1039 36.576 98.3999 36.576C94.5279 36.576 91.5839 35.504 89.5679 33.36C87.5839 31.216 86.5919 28.176 86.5919 24.24C86.5919 20.272 87.5839 17.088 89.5679 14.688C91.5519 12.256 94.4959 11.04 98.3999 11.04C101.504 11.04 103.872 12.048 105.504 14.064C107.136 16.08 107.952 18.704 107.952 21.936C107.952 22.608 107.568 23.376 106.8 24.24L92.9759 24C93.0399 26.56 93.5199 28.512 94.4159 29.856C95.3119 31.2 96.8159 31.872 98.9279 31.872ZM97.9679 15.024C96.7519 15.024 95.6159 15.264 94.5599 15.744C93.8239 17.28 93.3599 18.704 93.1679 20.016C95.6639 19.92 98.4959 19.856 101.664 19.824C101.504 16.624 100.272 15.024 97.9679 15.024ZM123.346 31.392C127.058 31.392 128.914 29.808 128.914 26.64C128.914 25.296 128.21 24.16 126.802 23.232C125.778 22.528 124.37 21.776 122.578 20.976C120.818 20.144 119.49 19.488 118.594 19.008C117.73 18.528 116.722 17.856 115.57 16.992C113.362 15.296 112.258 13.184 112.258 10.656C112.258 8.128 113.234 6.032 115.186 4.368C117.17 2.672 119.842 1.824 123.202 1.824C126.562 1.824 130.146 2.896 133.954 5.04C133.954 7.344 133.714 9.84 133.234 12.528C132.21 12.848 130.69 13.008 128.674 13.008L127.282 7.296C126.098 6.944 124.802 6.768 123.394 6.768C121.986 6.768 120.898 7.072 120.13 7.68C119.362 8.288 118.978 9.2 118.978 10.416C118.978 11.6 119.57 12.672 120.754 13.632C121.97 14.56 123.426 15.424 125.122 16.224C126.818 16.992 127.986 17.536 128.626 17.856C129.266 18.176 130.082 18.656 131.074 19.296C132.066 19.936 132.818 20.544 133.33 21.12C134.642 22.656 135.298 24.368 135.298 26.256C135.298 29.584 134.194 32.144 131.986 33.936C129.778 35.728 126.898 36.624 123.346 36.624C121.458 36.624 119.378 36.304 117.106 35.664C114.866 34.992 112.962 34.144 111.394 33.12C111.458 31.168 111.714 28.528 112.162 25.2C113.442 24.944 114.978 24.816 116.77 24.816L117.778 30.576C119.538 31.12 121.394 31.392 123.346 31.392ZM153.55 36.576C151.694 36.576 149.742 35.968 147.694 34.752C147.63 38.144 147.598 40.704 147.598 42.432L151.342 42.864C151.342 44.272 150.974 45.664 150.238 47.04H138.286L137.854 44.4C139.902 43.632 141.342 43.152 142.174 42.96L141.262 16.32C139.758 16.192 138.494 15.952 137.47 15.6C137.47 14.416 137.582 13.264 137.806 12.144C139.15 11.856 142.126 11.6 146.734 11.376C146.99 11.792 147.278 12.496 147.598 13.488C150.926 11.856 153.118 11.04 154.174 11.04C157.342 11.04 159.694 12.16 161.23 14.4C162.766 16.608 163.534 19.584 163.534 23.328C163.534 27.072 162.67 30.224 160.942 32.784C159.246 35.312 156.782 36.576 153.55 36.576ZM147.982 17.712L147.79 29.856C148.526 30.528 149.39 31.12 150.382 31.632C151.406 32.112 152.27 32.352 152.974 32.352C155.79 32.352 157.198 29.648 157.198 24.24C157.198 22.224 156.99 20.608 156.574 19.392C156.19 18.176 155.726 17.328 155.182 16.848C154.67 16.336 154.062 16.08 153.358 16.08C151.95 16.08 150.158 16.624 147.982 17.712ZM173.711 0.335999L174.863 0.383998C174.863 2.048 174.655 3.504 174.239 4.752C174.175 8.4 174.143 11.136 174.143 12.96C175.167 12.512 176.335 12.08 177.647 11.664C178.959 11.248 179.775 11.04 180.095 11.04C183.359 11.04 185.695 11.776 187.103 13.248C188.543 14.72 189.263 17.04 189.263 20.208C189.263 20.528 189.103 24.256 188.783 31.392L192.527 31.872C192.527 33.248 192.159 34.624 191.423 36H179.471L179.039 33.36C181.183 32.496 182.559 32.032 183.167 31.968C183.103 28.512 183.023 25.456 182.927 22.8C182.831 20.112 182.575 18.336 182.159 17.472C181.743 16.608 181.071 16.176 180.143 16.176C179.247 16.176 178.207 16.288 177.023 16.512C175.871 16.704 174.975 16.944 174.335 17.232L173.807 31.392L177.551 31.824C177.551 33.136 177.183 34.528 176.447 36H164.495L164.063 33.36C166.047 32.624 167.487 32.144 168.383 31.92L167.471 5.28C165.967 5.12 164.703 4.88 163.679 4.56C163.679 3.76 163.791 2.608 164.015 1.104C165.903 0.591998 169.135 0.335999 173.711 0.335999ZM206.6 31.872C207.688 31.872 209.896 31.12 213.224 29.616C213.928 30.64 214.456 31.824 214.808 33.168C213.048 34.256 211.32 35.104 209.624 35.712C207.96 36.288 206.776 36.576 206.072 36.576C202.2 36.576 199.256 35.504 197.24 33.36C195.256 31.216 194.264 28.176 194.264 24.24C194.264 20.272 195.256 17.088 197.24 14.688C199.224 12.256 202.168 11.04 206.072 11.04C209.176 11.04 211.544 12.048 213.176 14.064C214.808 16.08 215.624 18.704 215.624 21.936C215.624 22.608 215.24 23.376 214.472 24.24L200.648 24C200.712 26.56 201.192 28.512 202.088 29.856C202.984 31.2 204.488 31.872 206.6 31.872ZM205.64 15.024C204.424 15.024 203.288 15.264 202.232 15.744C201.496 17.28 201.032 18.704 200.84 20.016C203.336 19.92 206.168 19.856 209.336 19.824C209.176 16.624 207.944 15.024 205.64 15.024ZM232.554 16.224C232.49 16.064 232.17 15.984 231.594 15.984C231.018 15.984 230.026 16.416 228.618 17.28C228.49 23.552 228.41 28.256 228.378 31.392L232.122 31.872C232.122 33.248 231.754 34.624 231.018 36H219.066L218.634 33.36C220.618 32.624 222.058 32.144 222.954 31.92L222.426 16.368C220.762 16.24 219.37 16 218.25 15.648L218.586 12.192C219.45 11.808 222.57 11.552 227.946 11.424C228.234 11.712 228.378 12.272 228.378 13.104C231.194 11.728 232.97 11.04 233.706 11.04C234.474 11.04 235.402 11.232 236.49 11.616C237.61 11.968 238.458 12.352 239.034 12.768V13.584C239.034 16.208 238.714 18.64 238.074 20.88C237.53 21.104 236.81 21.216 235.914 21.216C235.018 21.216 234.186 21.168 233.418 21.072C233.322 20.656 233.034 19.04 232.554 16.224ZM252.725 31.872C253.813 31.872 256.021 31.12 259.349 29.616C260.053 30.64 260.581 31.824 260.933 33.168C259.173 34.256 257.445 35.104 255.749 35.712C254.085 36.288 252.901 36.576 252.197 36.576C248.325 36.576 245.381 35.504 243.365 33.36C241.381 31.216 240.389 28.176 240.389 24.24C240.389 20.272 241.381 17.088 243.365 14.688C245.349 12.256 248.293 11.04 252.197 11.04C255.301 11.04 257.669 12.048 259.301 14.064C260.933 16.08 261.749 18.704 261.749 21.936C261.749 22.608 261.365 23.376 260.597 24.24L246.773 24C246.837 26.56 247.317 28.512 248.213 29.856C249.109 31.2 250.613 31.872 252.725 31.872ZM251.765 15.024C250.549 15.024 249.413 15.264 248.357 15.744C247.621 17.28 247.157 18.704 246.965 20.016C249.461 19.92 252.293 19.856 255.461 19.824C255.301 16.624 254.069 15.024 251.765 15.024Z" fill="white"/>
</svg>
